<svg width="40" height="24" viewBox="0 0 40 24" fill="none" xmlns="http://www.w3.org/2000/svg">
    <path d="M2 4C2 2.89543 2.89543 2 4 2H36C37.1046 2 38 2.89543 38 4C38 5.10457 37.1046 6 36 6H4C2.89543 6 2 5.10457 2 4Z" fill="#D1D5DB"/>
    <path d="M2 12C2 10.8954 2.89543 10 4 10H36C37.1046 10 38 10.8954 38 12C38 13.1046 37.1046 14 36 14H4C2.89543 14 2 13.1046 2 12Z" fill="#D1D5DB"/>
    <path d="M2 20C2 18.8954 2.89543 18 4 18H36C37.1046 18 38 18.8954 38 20C38 21.1046 37.1046 22 36 22H4C2.89543 22 2 21.1046 2 20Z" fill="#D1D5DB"/>
</svg>
